<svg id="svg" version="1.1" xmlns="http://www.w3.org/2000/svg" xmlns:xlink="http://www.w3.org/1999/xlink" width="400" height="400" viewBox="0, 0, 400,400"><g id="svgg"><path id="path0" d="" stroke="none" fill="#787878" fill-rule="evenodd"></path><path id="path1" d="M378.813 34.291 C 378.289 34.882,378.303 34.923,378.946 34.676 C 379.342 34.524,379.741 34.400,379.833 34.400 C 379.925 34.400,380.000 34.220,380.000 34.000 C 380.000 33.412,379.481 33.539,378.813 34.291 M74.400 142.000 C 74.400 142.220,74.580 142.400,74.800 142.400 C 75.020 142.400,75.200 142.670,75.200 143.000 C 75.200 143.330,75.380 143.600,75.600 143.600 C 76.139 143.600,76.084 143.144,75.443 142.300 C 74.852 141.521,74.400 141.391,74.400 142.000 M323.260 148.380 C 323.432 148.896,323.981 148.988,324.030 148.510 C 324.047 148.351,323.844 148.148,323.580 148.060 C 323.316 147.972,323.172 148.116,323.260 148.380 M301.600 187.429 C 301.600 187.851,302.702 188.764,302.933 188.533 C 303.059 188.408,302.913 188.056,302.610 187.752 C 302.033 187.176,301.600 187.037,301.600 187.429 M99.700 203.798 C 99.131 204.445,99.061 204.800,99.504 204.800 C 99.671 204.800,100.032 204.440,100.307 204.000 C 100.878 203.087,100.451 202.945,99.700 203.798 M99.200 209.353 C 99.200 209.683,99.380 210.064,99.600 210.200 C 99.820 210.336,100.000 210.177,100.000 209.847 C 100.000 209.517,99.820 209.136,99.600 209.000 C 99.380 208.864,99.200 209.023,99.200 209.353 M311.200 229.025 C 311.200 229.325,312.273 230.400,312.571 230.400 C 313.080 230.400,312.751 229.762,312.000 229.293 C 311.560 229.018,311.200 228.898,311.200 229.025 M344.000 292.229 C 344.000 292.527,345.075 293.600,345.375 293.600 C 345.502 293.600,345.382 293.240,345.107 292.800 C 344.638 292.049,344.000 291.720,344.000 292.229 M368.060 343.980 C 368.148 344.244,368.351 344.447,368.510 344.430 C 368.988 344.381,368.896 343.832,368.380 343.660 C 368.116 343.572,367.972 343.716,368.060 343.980 M21.275 363.625 C 21.371 363.914,21.686 364.229,21.975 364.325 C 22.275 364.425,22.425 364.275,22.325 363.975 C 22.229 363.686,21.914 363.371,21.625 363.275 C 21.325 363.175,21.175 363.325,21.275 363.625 " stroke="none" fill="#040404" fill-rule="evenodd"></path><path id="path2" d="" stroke="none" fill="#3c3c3c" fill-rule="evenodd"></path><path id="path3" d="" stroke="none" fill="#2c2c2c" fill-rule="evenodd"></path><path id="path4" d="" stroke="none" fill="#1c1c1c" fill-rule="evenodd"></path></g></svg>